<svg width="132" height="26" viewBox="0 0 132 26" fill="none" xmlns="http://www.w3.org/2000/svg">
<path d="M8.36711 25.287H3.40134V12.9079H0.0185547V8.87755H3.4012V6.00965C3.4012 2.61119 4.89736 0.173828 9.84969 0.173828C10.8971 0.173828 12.5415 0.384947 12.5415 0.384947V4.12737H10.8144C9.0545 4.12737 8.36738 4.66268 8.36738 6.14262V8.87755H12.4756L12.1098 12.9079H8.36725L8.36711 25.287ZM19.7612 8.55547C19.6889 8.55547 19.6144 8.5581 19.5407 8.55995C14.9362 8.55995 12.8295 12.0235 12.8295 16.9401C12.8295 23.1338 15.5622 25.6126 19.5767 25.6126C21.8736 25.6126 23.3827 24.6459 24.2999 22.8417V25.2887H29.023V8.87926H24.2999V11.4028C23.5509 9.77922 21.9997 8.57471 19.7612 8.55547ZM20.9622 12.433C22.8961 12.433 24.0569 13.7819 24.0569 16.0764L24.0614 18.4199C24.0614 19.9664 23.1026 21.7757 20.9622 21.7757C17.6715 21.7757 17.7594 18.2225 17.7594 17.0391C17.7594 13.0583 19.5127 12.433 20.9622 12.433ZM30.9305 17.0848C30.9305 15.0908 30.8351 8.56614 39.3357 8.56614C42.748 8.56614 44.1729 9.65112 44.1729 9.65112L43.0277 13.2031C43.0277 13.2031 41.6047 12.4195 39.7505 12.4195C37.3756 12.4195 35.8602 13.7963 35.8602 16.2186L35.8628 17.9555C35.8628 20.2831 37.325 21.8369 39.7553 21.8369C41.4445 21.8369 43.0014 21.0459 43.0014 21.0459L44.1438 24.5237C44.1438 24.5237 42.8409 25.6155 39.3596 25.6155C31.2656 25.6155 30.9306 19.7616 30.9306 17.0848H30.9305ZM71.8665 8.55995C76.4712 8.55995 78.6111 12.0235 78.6111 16.9401C78.6111 23.1338 75.8783 25.6126 71.8637 25.6126C69.5669 25.6126 67.8689 24.646 66.9517 22.8417V25.2887L62.288 25.2869V0.672765L67.2397 0.240907V11.1805C67.9543 9.26658 70.303 8.55995 71.8666 8.55995H71.8665ZM70.4783 12.433C68.5443 12.433 67.2397 13.7819 67.2397 16.0764L67.2351 18.4199C67.2322 19.9664 68.1386 21.7757 70.4783 21.7757C73.769 21.7757 73.6811 18.2225 73.6811 17.0391C73.6811 13.0583 71.9279 12.433 70.4783 12.433ZM52.7645 8.57352C47.5418 8.57352 44.7846 11.421 44.7846 16.4813V17.4214C44.7846 23.9892 48.6566 25.6801 53.2727 25.6801C57.7596 25.6801 59.7906 24.4251 59.7906 24.4251L58.864 21.0831C58.864 21.0831 56.475 22.0995 53.8664 22.0995C51.1622 22.0995 49.9992 21.4103 49.7011 18.8115H60.1864V16.1303C60.1864 10.6412 57.092 8.57339 52.7643 8.57339L52.7645 8.57352ZM52.8903 11.9201C54.6981 11.9201 55.8696 13.0286 55.8052 15.5996H49.7102C49.8159 12.8937 51.0792 11.9202 52.8903 11.9202V11.9201ZM88.4846 8.55099C83.1213 8.55099 80.2978 11.5733 80.2978 16.9896C80.2978 24.4209 85.1649 25.6171 88.4935 25.6171C93.3664 25.6171 96.6083 22.9937 96.6083 17.057C96.6083 10.878 92.9631 8.55099 88.4846 8.55099ZM88.4171 12.4464C90.7754 12.4464 91.7099 14.2114 91.7099 16.2205V17.9478C91.7099 20.3816 90.4023 21.7893 88.4081 21.7893C86.5431 21.7893 85.2324 20.4725 85.2324 17.9478V16.2205C85.2324 13.5278 86.792 12.4464 88.4171 12.4464ZM106.473 8.55099C101.11 8.55099 98.2862 11.5733 98.2862 16.9896C98.2862 24.4209 103.153 25.6171 106.482 25.6171C111.355 25.6171 114.597 22.9937 114.597 17.057C114.597 10.878 110.951 8.55099 106.473 8.55099ZM106.405 12.4464C108.764 12.4464 109.698 14.2114 109.698 16.2205V17.9478C109.698 20.3816 108.391 21.7893 106.396 21.7893C104.531 21.7893 103.221 20.4725 103.221 17.9478V16.2205C103.221 13.5278 104.78 12.4464 106.405 12.4464ZM116.468 25.287V0.672765L121.434 0.240907V16.7389L126.361 8.87755H131.605L126.466 17.0196L131.803 25.287H126.544L121.434 17.2594V25.287H116.468Z" fill="#131313"/>
</svg>
