<svg width="177" height="25" viewBox="0 0 177 25" fill="none" xmlns="http://www.w3.org/2000/svg">
<path d="M8.112 19.288C6.976 19.288 5.92 19.08 4.944 18.664C3.984 18.248 3.152 17.672 2.448 16.936C1.76 16.184 1.256 15.312 0.936 14.32L3.648 13.144C4.08 14.168 4.704 14.976 5.52 15.568C6.336 16.144 7.256 16.432 8.28 16.432C8.856 16.432 9.352 16.344 9.768 16.168C10.2 15.976 10.528 15.72 10.752 15.4C10.992 15.08 11.112 14.696 11.112 14.248C11.112 13.72 10.952 13.288 10.632 12.952C10.328 12.6 9.864 12.328 9.24 12.136L5.808 11.032C4.416 10.6 3.368 9.952 2.664 9.088C1.96 8.224 1.608 7.208 1.608 6.04C1.608 5.016 1.856 4.112 2.352 3.328C2.864 2.544 3.568 1.936 4.464 1.504C5.376 1.056 6.416 0.831999 7.584 0.831999C8.656 0.831999 9.64 1.024 10.536 1.408C11.432 1.776 12.2 2.296 12.84 2.968C13.496 3.624 13.984 4.4 14.304 5.296L11.616 6.496C11.264 5.6 10.736 4.912 10.032 4.432C9.328 3.936 8.512 3.688 7.584 3.688C7.04 3.688 6.56 3.784 6.144 3.976C5.728 4.152 5.4 4.408 5.16 4.744C4.936 5.064 4.824 5.448 4.824 5.896C4.824 6.392 4.984 6.832 5.304 7.216C5.624 7.584 6.112 7.872 6.768 8.08L10.056 9.112C11.48 9.576 12.544 10.216 13.248 11.032C13.968 11.848 14.328 12.856 14.328 14.056C14.328 15.08 14.064 15.984 13.536 16.768C13.008 17.552 12.28 18.168 11.352 18.616C10.424 19.064 9.344 19.288 8.112 19.288ZM22.9551 19.144C21.4831 19.144 20.3391 18.744 19.5231 17.944C18.7231 17.128 18.3231 15.984 18.3231 14.512V8.752H16.0671V5.944H16.3071C16.9471 5.944 17.4431 5.776 17.7951 5.44C18.1471 5.104 18.3231 4.616 18.3231 3.976V2.968H21.4671V5.944H24.4671V8.752H21.4671V14.344C21.4671 14.776 21.5391 15.144 21.6831 15.448C21.8431 15.752 22.0831 15.984 22.4031 16.144C22.7391 16.304 23.1631 16.384 23.6751 16.384C23.7871 16.384 23.9151 16.376 24.0591 16.36C24.2191 16.344 24.3711 16.328 24.5151 16.312V19C24.2911 19.032 24.0351 19.064 23.7471 19.096C23.4591 19.128 23.1951 19.144 22.9551 19.144ZM26.9171 19V5.944H29.8691V8.848L29.6291 8.416C29.9331 7.44 30.4051 6.76 31.0451 6.376C31.7011 5.992 32.4851 5.8 33.3971 5.8H34.1651V8.584H33.0371C32.1411 8.584 31.4211 8.864 30.8771 9.424C30.3331 9.968 30.0611 10.736 30.0611 11.728V19H26.9171ZM35.8937 19V5.944H39.0377V19H35.8937ZM35.8937 4.48V1.12H39.0377V4.48H35.8937ZM41.9406 19V5.944H44.8926V8.968L44.5566 8.464C44.7966 7.52 45.2766 6.816 45.9966 6.352C46.7166 5.888 47.5646 5.656 48.5406 5.656C49.6126 5.656 50.5566 5.936 51.3726 6.496C52.1886 7.056 52.7166 7.792 52.9566 8.704L52.0686 8.776C52.4686 7.736 53.0686 6.96 53.8686 6.448C54.6686 5.92 55.5886 5.656 56.6286 5.656C57.5566 5.656 58.3806 5.864 59.1006 6.28C59.8366 6.696 60.4126 7.28 60.8286 8.032C61.2446 8.768 61.4526 9.624 61.4526 10.6V19H58.3086V11.344C58.3086 10.768 58.2046 10.272 57.9966 9.856C57.7886 9.44 57.5006 9.12 57.1326 8.896C56.7646 8.656 56.3166 8.536 55.7886 8.536C55.2926 8.536 54.8526 8.656 54.4686 8.896C54.0846 9.12 53.7886 9.44 53.5806 9.856C53.3726 10.272 53.2686 10.768 53.2686 11.344V19H50.1246V11.344C50.1246 10.768 50.0206 10.272 49.8126 9.856C49.6046 9.44 49.3086 9.12 48.9246 8.896C48.5566 8.656 48.1166 8.536 47.6046 8.536C47.1086 8.536 46.6686 8.656 46.2846 8.896C45.9006 9.12 45.6046 9.44 45.3966 9.856C45.1886 10.272 45.0846 10.768 45.0846 11.344V19H41.9406ZM64.1124 19V0.831999H67.2564V12.736L66.0564 12.376L72.2004 5.944H76.1124L71.2884 11.2L76.2084 19H72.6084L68.3364 12.232L70.2084 11.848L66.2724 16.072L67.2564 14.152V19H64.1124ZM77.964 19V5.944H81.108V19H77.964ZM77.964 4.48V1.12H81.108V4.48H77.964ZM87.0765 19L93.2445 1.12H97.4685L103.637 19H100.085L98.8125 15.16H91.9005L90.6045 19H87.0765ZM92.8365 12.28H97.8765L94.9005 3.376H95.8125L92.8365 12.28ZM111.23 24.28C110.254 24.28 109.35 24.12 108.518 23.8C107.686 23.48 106.966 23.032 106.358 22.456C105.766 21.896 105.334 21.232 105.062 20.464L107.99 19.36C108.182 19.968 108.558 20.456 109.118 20.824C109.694 21.208 110.398 21.4 111.23 21.4C111.87 21.4 112.43 21.28 112.91 21.04C113.406 20.8 113.79 20.448 114.062 19.984C114.334 19.536 114.47 18.992 114.47 18.352V15.376L115.07 16.096C114.622 16.88 114.022 17.472 113.27 17.872C112.518 18.272 111.662 18.472 110.702 18.472C109.486 18.472 108.398 18.192 107.438 17.632C106.478 17.072 105.726 16.304 105.182 15.328C104.638 14.352 104.366 13.256 104.366 12.04C104.366 10.808 104.638 9.712 105.182 8.752C105.726 7.792 106.47 7.04 107.414 6.496C108.358 5.936 109.43 5.656 110.63 5.656C111.606 5.656 112.462 5.864 113.198 6.28C113.95 6.68 114.574 7.264 115.07 8.032L114.638 8.824V5.944H117.614V18.352C117.614 19.488 117.334 20.504 116.774 21.4C116.23 22.296 115.478 23 114.518 23.512C113.574 24.024 112.478 24.28 111.23 24.28ZM111.086 15.568C111.758 15.568 112.342 15.424 112.838 15.136C113.35 14.832 113.75 14.416 114.038 13.888C114.326 13.36 114.47 12.752 114.47 12.064C114.47 11.392 114.318 10.792 114.014 10.264C113.726 9.72 113.326 9.296 112.814 8.992C112.318 8.688 111.742 8.536 111.086 8.536C110.43 8.536 109.838 8.688 109.31 8.992C108.782 9.296 108.366 9.72 108.062 10.264C107.774 10.792 107.63 11.392 107.63 12.064C107.63 12.736 107.774 13.336 108.062 13.864C108.366 14.392 108.774 14.808 109.286 15.112C109.814 15.416 110.414 15.568 111.086 15.568ZM126.742 19.288C125.398 19.288 124.222 18.984 123.214 18.376C122.206 17.768 121.422 16.944 120.862 15.904C120.302 14.864 120.022 13.712 120.022 12.448C120.022 11.136 120.302 9.976 120.862 8.968C121.438 7.944 122.214 7.136 123.19 6.544C124.182 5.952 125.286 5.656 126.502 5.656C127.526 5.656 128.422 5.824 129.19 6.16C129.974 6.496 130.638 6.96 131.182 7.552C131.726 8.144 132.142 8.824 132.43 9.592C132.718 10.344 132.862 11.16 132.862 12.04C132.862 12.264 132.846 12.496 132.814 12.736C132.798 12.976 132.758 13.184 132.694 13.36H122.614V10.96H130.918L129.43 12.088C129.574 11.352 129.534 10.696 129.31 10.12C129.102 9.544 128.75 9.088 128.254 8.752C127.774 8.416 127.19 8.248 126.502 8.248C125.846 8.248 125.262 8.416 124.75 8.752C124.238 9.072 123.846 9.552 123.574 10.192C123.318 10.816 123.222 11.576 123.286 12.472C123.222 13.272 123.326 13.984 123.598 14.608C123.886 15.216 124.302 15.688 124.846 16.024C125.406 16.36 126.046 16.528 126.766 16.528C127.486 16.528 128.094 16.376 128.59 16.072C129.102 15.768 129.502 15.36 129.79 14.848L132.334 16.096C132.078 16.72 131.678 17.272 131.134 17.752C130.59 18.232 129.942 18.608 129.19 18.88C128.454 19.152 127.638 19.288 126.742 19.288ZM135.245 19V5.944H138.197V8.512L137.957 8.056C138.261 7.272 138.757 6.68 139.445 6.28C140.149 5.864 140.965 5.656 141.893 5.656C142.853 5.656 143.701 5.864 144.437 6.28C145.189 6.696 145.773 7.28 146.189 8.032C146.605 8.768 146.813 9.624 146.813 10.6V19H143.669V11.344C143.669 10.768 143.557 10.272 143.333 9.856C143.109 9.44 142.797 9.12 142.397 8.896C142.013 8.656 141.557 8.536 141.029 8.536C140.517 8.536 140.061 8.656 139.661 8.896C139.261 9.12 138.949 9.44 138.725 9.856C138.501 10.272 138.389 10.768 138.389 11.344V19H135.245ZM155.76 19.288C154.464 19.288 153.296 18.992 152.256 18.4C151.232 17.792 150.424 16.976 149.832 15.952C149.24 14.912 148.944 13.744 148.944 12.448C148.944 11.152 149.24 9.992 149.832 8.968C150.424 7.944 151.232 7.136 152.256 6.544C153.296 5.952 154.464 5.656 155.76 5.656C156.688 5.656 157.552 5.824 158.352 6.16C159.152 6.48 159.84 6.928 160.416 7.504C161.008 8.064 161.432 8.736 161.688 9.52L158.928 10.72C158.688 10.064 158.28 9.536 157.704 9.136C157.144 8.736 156.496 8.536 155.76 8.536C155.072 8.536 154.456 8.704 153.912 9.04C153.384 9.376 152.968 9.84 152.664 10.432C152.36 11.024 152.208 11.704 152.208 12.472C152.208 13.24 152.36 13.92 152.664 14.512C152.968 15.104 153.384 15.568 153.912 15.904C154.456 16.24 155.072 16.408 155.76 16.408C156.512 16.408 157.168 16.208 157.728 15.808C158.288 15.408 158.688 14.872 158.928 14.2L161.688 15.448C161.432 16.184 161.016 16.848 160.44 17.44C159.864 18.016 159.176 18.472 158.376 18.808C157.576 19.128 156.704 19.288 155.76 19.288ZM165.657 24.304C165.305 24.304 164.961 24.272 164.625 24.208C164.289 24.16 163.985 24.072 163.713 23.944V21.304C163.921 21.352 164.169 21.4 164.457 21.448C164.761 21.496 165.041 21.52 165.297 21.52C166.017 21.52 166.537 21.352 166.857 21.016C167.193 20.68 167.489 20.24 167.745 19.696L168.609 17.68L168.561 20.32L162.873 5.944H166.257L170.241 16.552H169.041L173.001 5.944H176.409L170.721 20.32C170.385 21.168 169.977 21.888 169.497 22.48C169.017 23.072 168.457 23.52 167.817 23.824C167.193 24.144 166.473 24.304 165.657 24.304Z" fill="#18181B"/>
</svg>
