<svg width="56" height="56" viewBox="0 0 56 56" fill="none" xmlns="http://www.w3.org/2000/svg">
<rect x="4" y="4" width="48" height="48" rx="24" fill="#F4EBFF"/>
<path d="M25.451 33.196C24.2283 33.196 23.267 32.734 22.567 31.81C21.8763 30.8767 21.531 29.64 21.531 28.1C21.531 26.56 21.8763 25.328 22.567 24.404C23.267 23.4707 24.2283 23.004 25.451 23.004C26.683 23.004 27.6443 23.4707 28.335 24.404C29.0257 25.328 29.371 26.56 29.371 28.1C29.371 29.64 29.0257 30.8767 28.335 31.81C27.6443 32.734 26.683 33.196 25.451 33.196ZM23.967 30.494C24.303 31.0353 24.7977 31.306 25.451 31.306C26.1043 31.306 26.599 31.0307 26.935 30.48C27.2803 29.9293 27.453 29.136 27.453 28.1C27.453 27.0547 27.2803 26.2567 26.935 25.706C26.599 25.1553 26.1043 24.88 25.451 24.88C24.7977 24.88 24.303 25.1553 23.967 25.706C23.631 26.2567 23.463 27.0547 23.463 28.1C23.463 29.1453 23.631 29.9433 23.967 30.494ZM32.3159 23.2H33.9959V33H32.0639V25.244L30.2159 25.762L29.7399 24.11L32.3159 23.2Z" fill="#9E77ED"/>
<rect x="4" y="4" width="48" height="48" rx="24" stroke="#F9F5FF" stroke-width="8"/>
</svg>
