<svg width="56" height="56" viewBox="0 0 56 56" fill="none" xmlns="http://www.w3.org/2000/svg">
<rect x="4" y="4" width="48" height="48" rx="24" fill="#F4EBFF"/>
<path d="M23.4705 33.196C22.2479 33.196 21.2865 32.734 20.5865 31.81C19.8959 30.8767 19.5505 29.64 19.5505 28.1C19.5505 26.56 19.8959 25.328 20.5865 24.404C21.2865 23.4707 22.2479 23.004 23.4705 23.004C24.7025 23.004 25.6639 23.4707 26.3545 24.404C27.0452 25.328 27.3905 26.56 27.3905 28.1C27.3905 29.64 27.0452 30.8767 26.3545 31.81C25.6639 32.734 24.7025 33.196 23.4705 33.196ZM21.9865 30.494C22.3225 31.0353 22.8172 31.306 23.4705 31.306C24.1239 31.306 24.6185 31.0307 24.9545 30.48C25.2999 29.9293 25.4725 29.136 25.4725 28.1C25.4725 27.0547 25.2999 26.2567 24.9545 25.706C24.6185 25.1553 24.1239 24.88 23.4705 24.88C22.8172 24.88 22.3225 25.1553 21.9865 25.706C21.6505 26.2567 21.4825 27.0547 21.4825 28.1C21.4825 29.1453 21.6505 29.9433 21.9865 30.494ZM35.8029 29.542V31.334H34.7529V33H32.8069V31.334H28.1729V29.542L31.4349 23.2H33.5069L30.2589 29.542H32.8069V27.218H34.7529V29.542H35.8029Z" fill="#9E77ED"/>
<rect x="4" y="4" width="48" height="48" rx="24" stroke="#F9F5FF" stroke-width="8"/>
</svg>
