<svg width="56" height="56" viewBox="0 0 56 56" fill="none" xmlns="http://www.w3.org/2000/svg">
<rect x="4" y="4" width="48" height="48" rx="24" fill="#F4EBFF"/>
<path d="M24.3592 33.196C23.1366 33.196 22.1752 32.734 21.4752 31.81C20.7846 30.8767 20.4392 29.64 20.4392 28.1C20.4392 26.56 20.7846 25.328 21.4752 24.404C22.1752 23.4707 23.1366 23.004 24.3592 23.004C25.5912 23.004 26.5526 23.4707 27.2432 24.404C27.9339 25.328 28.2792 26.56 28.2792 28.1C28.2792 29.64 27.9339 30.8767 27.2432 31.81C26.5526 32.734 25.5912 33.196 24.3592 33.196ZM22.8752 30.494C23.2112 31.0353 23.7059 31.306 24.3592 31.306C25.0126 31.306 25.5072 31.0307 25.8432 30.48C26.1886 29.9293 26.3612 29.136 26.3612 28.1C26.3612 27.0547 26.1886 26.2567 25.8432 25.706C25.5072 25.1553 25.0126 24.88 24.3592 24.88C23.7059 24.88 23.2112 25.1553 22.8752 25.706C22.5392 26.2567 22.3712 27.0547 22.3712 28.1C22.3712 29.1453 22.5392 29.9433 22.8752 30.494ZM33.3131 27.176C33.9758 27.372 34.5124 27.7173 34.9231 28.212C35.3431 28.6973 35.5531 29.2853 35.5531 29.976C35.5531 30.984 35.2124 31.7727 34.5311 32.342C33.8591 32.9113 33.0331 33.196 32.0531 33.196C31.2878 33.196 30.6018 33.0233 29.9951 32.678C29.3978 32.3233 28.9638 31.8053 28.6931 31.124L30.3451 30.172C30.5878 30.928 31.1571 31.306 32.0531 31.306C32.5478 31.306 32.9304 31.1893 33.2011 30.956C33.4811 30.7133 33.6211 30.3867 33.6211 29.976C33.6211 29.5747 33.4811 29.2527 33.2011 29.01C32.9304 28.7673 32.5478 28.646 32.0531 28.646H31.6331L30.8911 27.526L32.8231 25.006H28.9871V23.2H35.1471V24.796L33.3131 27.176Z" fill="#9E77ED"/>
<rect x="4" y="4" width="48" height="48" rx="24" stroke="#F9F5FF" stroke-width="8"/>
</svg>
