<svg width="56" height="56" viewBox="0 0 56 56" fill="none" xmlns="http://www.w3.org/2000/svg">
<rect x="4" y="4" width="48" height="48" rx="24" fill="#F4EBFF"/>
<path d="M24.4002 33.196C23.1776 33.196 22.2162 32.734 21.5162 31.81C20.8256 30.8767 20.4802 29.64 20.4802 28.1C20.4802 26.56 20.8256 25.328 21.5162 24.404C22.2162 23.4707 23.1776 23.004 24.4002 23.004C25.6322 23.004 26.5936 23.4707 27.2842 24.404C27.9749 25.328 28.3202 26.56 28.3202 28.1C28.3202 29.64 27.9749 30.8767 27.2842 31.81C26.5936 32.734 25.6322 33.196 24.4002 33.196ZM22.9162 30.494C23.2522 31.0353 23.7469 31.306 24.4002 31.306C25.0536 31.306 25.5482 31.0307 25.8842 30.48C26.2296 29.9293 26.4022 29.136 26.4022 28.1C26.4022 27.0547 26.2296 26.2567 25.8842 25.706C25.5482 25.1553 25.0536 24.88 24.4002 24.88C23.7469 24.88 23.2522 25.1553 22.9162 25.706C22.5802 26.2567 22.4122 27.0547 22.4122 28.1C22.4122 29.1453 22.5802 29.9433 22.9162 30.494ZM28.9405 33V31.558L32.2865 28.114C33.0332 27.33 33.4065 26.6767 33.4065 26.154C33.4065 25.7713 33.2852 25.4633 33.0425 25.23C32.8092 24.9967 32.5058 24.88 32.1325 24.88C31.3952 24.88 30.8492 25.2627 30.4945 26.028L28.8705 25.076C29.1785 24.404 29.6218 23.8907 30.2005 23.536C30.7792 23.1813 31.4138 23.004 32.1045 23.004C32.9912 23.004 33.7518 23.284 34.3865 23.844C35.0212 24.3947 35.3385 25.1413 35.3385 26.084C35.3385 27.1013 34.8018 28.1467 33.7285 29.22L31.8105 31.138H35.4925V33H28.9405Z" fill="#9E77ED"/>
<rect x="4" y="4" width="48" height="48" rx="24" stroke="#F9F5FF" stroke-width="8"/>
</svg>
