<svg width="133" height="39" viewBox="0 0 133 39" fill="none" xmlns="http://www.w3.org/2000/svg">
<path d="M7.30565 0.848892C4.60908 1.97853 1.64463 5.16585 0.708365 9.16968C-0.477373 14.2411 4.45695 16.3857 4.86166 15.6836C5.338 14.8571 3.97752 14.5777 3.69744 11.9463C3.33553 8.54765 4.91555 4.75005 6.90427 3.08377C7.27394 2.77419 7.2562 3.20507 7.2562 4.00206C7.2562 5.42752 7.17748 18.2216 7.17748 20.892C7.17748 24.5051 7.02823 25.646 6.76013 26.7732C6.48848 27.9157 6.05206 28.6877 6.3827 28.9853C6.75237 29.3179 8.33039 28.5267 9.24404 27.2516C10.3395 25.7223 10.7229 23.8857 10.7919 21.8912C10.8751 19.487 10.8715 15.6718 10.8751 13.4957C10.8784 11.4999 10.9085 5.65571 10.84 2.1424C10.8234 1.28065 8.43351 0.376549 7.30565 0.848892ZM131.678 19.83C131.287 19.83 131.108 20.2332 130.961 20.912C130.448 23.2721 129.91 23.8048 129.216 23.8048C128.44 23.8048 127.743 22.6361 127.564 20.297C127.423 18.4578 127.445 15.0713 127.626 11.703C127.662 11.0109 127.471 10.3261 125.615 9.65178C124.816 9.3615 123.655 8.93462 123.077 10.3301C121.444 14.2728 120.804 17.4031 120.654 18.6742C120.646 18.7401 120.566 18.7534 120.551 18.5997C120.456 17.5814 120.241 15.7306 120.215 11.8425C120.21 11.0839 120.049 10.4381 119.212 9.90946C118.668 9.56618 117.018 8.95968 116.424 9.6815C115.91 10.2718 115.314 11.8605 114.694 13.7437C114.191 15.274 113.84 16.3094 113.84 16.3094C113.84 16.3094 113.847 12.1796 113.853 10.6131C113.856 10.0221 113.45 9.82497 113.328 9.78949C112.778 9.62983 111.694 9.36305 111.234 9.36305C110.666 9.36305 110.527 9.68039 110.527 10.1428C110.527 10.2033 110.437 15.58 110.437 19.3397C110.437 19.5029 110.438 19.6812 110.438 19.8706C110.124 21.5985 109.106 23.9443 107.998 23.9443C106.89 23.9443 106.367 22.9637 106.367 18.4815C106.367 15.867 106.445 14.7298 106.484 12.8389C106.506 11.7496 106.549 10.9129 106.547 10.7233C106.539 10.1412 105.532 9.84782 105.064 9.73915C104.593 9.63005 104.184 9.58747 103.865 9.60566C103.413 9.63116 103.093 9.92765 103.093 10.3355C103.093 10.5541 103.096 10.9697 103.096 10.9697C102.514 10.0549 101.577 9.41827 100.955 9.23377C99.2767 8.7357 97.5259 9.17722 96.2054 11.0249C95.1558 12.4932 94.5231 14.1563 94.2741 16.5456C94.092 18.2921 94.1515 20.0635 94.475 21.5615C94.084 23.2517 93.3582 23.9443 92.5634 23.9443C91.4096 23.9443 90.5732 22.0611 90.6703 18.8039C90.7344 16.6615 91.163 15.1582 91.6316 12.9832C91.8314 12.0559 91.6691 11.5707 91.262 11.1054C90.8885 10.6785 90.0931 10.4608 88.949 10.7289C88.1343 10.9198 86.9692 11.1256 85.9036 11.2835C85.9036 11.2835 85.9679 11.0269 86.0207 10.5745C86.2979 8.20215 83.72 8.39464 82.8975 9.15238C82.4065 9.60477 82.0723 10.1383 81.9455 11.0976C81.7443 12.6198 82.9857 13.3381 82.9857 13.3381C82.5784 15.203 81.5798 17.6388 80.5491 19.4C79.9969 20.3436 79.5742 21.0428 79.0291 21.7861C79.0271 21.5098 79.0256 21.2335 79.0247 20.9572C79.0121 17.0368 79.0644 13.9512 79.0872 12.8391C79.1099 11.7498 79.1535 10.9355 79.1509 10.7459C79.1449 10.3202 78.8963 10.1592 78.3792 9.95581C77.9219 9.77574 77.3813 9.65112 76.8204 9.60765C76.1128 9.55266 75.6861 9.92787 75.6975 10.3718C75.6997 10.4557 75.6997 10.9704 75.6997 10.9704C75.1176 10.0556 74.1811 9.41894 73.5584 9.23443C71.8806 8.73637 70.1298 9.17789 68.8092 11.0256C67.7599 12.4938 67.0726 14.5542 66.8779 16.5278C66.6965 18.3673 66.73 19.9305 66.9773 21.2473C66.7105 22.5658 65.9435 23.9447 65.0762 23.9447C63.9674 23.9447 63.3365 22.9641 63.3365 18.4819C63.3365 15.8674 63.415 14.7305 63.4533 12.8393C63.476 11.7501 63.5192 10.9134 63.5165 10.7238C63.5083 10.1416 62.5018 9.84826 62.0334 9.7396C61.5433 9.62606 61.1202 9.58459 60.7953 9.60854C60.3665 9.64047 60.0653 10.0241 60.0653 10.3104V10.9704C59.4832 10.0556 58.5467 9.41894 57.924 9.23443C56.2462 8.73637 54.5052 9.18498 53.1749 11.0256C52.3074 12.2257 51.6051 13.5563 51.2436 16.5017C51.1391 17.3528 51.093 18.15 51.099 18.8949C50.7531 21.0104 49.2254 23.4487 47.9753 23.4487C47.244 23.4487 46.5474 22.0303 46.5474 19.0071C46.5474 14.98 46.7969 9.24641 46.8388 8.69379C46.8388 8.69379 48.4179 8.66696 48.7238 8.66341C49.5117 8.65476 50.2251 8.67339 51.274 8.61972C51.8002 8.59289 52.3071 6.7044 51.7641 6.47067C51.5181 6.36489 49.7782 6.2722 49.0888 6.25756C48.5089 6.24448 46.8943 6.12495 46.8943 6.12495C46.8943 6.12495 47.0391 2.31915 47.073 1.9171C47.1016 1.5818 46.6681 1.4095 46.4195 1.3046C45.8147 1.04914 45.2741 0.926507 44.633 0.79434C43.7473 0.611612 43.3452 0.790348 43.267 1.53811C43.1488 2.67241 43.0876 5.99566 43.0876 5.99566C42.4374 5.99566 40.2174 5.8686 39.5672 5.8686C38.9629 5.8686 38.3111 8.46649 39.1463 8.49842C40.1071 8.53568 41.7816 8.56783 42.8918 8.60132C42.8918 8.60132 42.8423 14.4295 42.8423 16.2289C42.8423 16.4203 42.843 16.6045 42.8443 16.7835C42.2334 19.9679 40.0812 21.6881 40.0812 21.6881C40.5433 19.5814 39.5993 17.9994 37.8991 16.6602C37.2724 16.1666 36.0359 15.2325 34.6521 14.2087C34.6521 14.2087 35.4536 13.4188 36.1643 11.8294C36.6679 10.7038 36.6896 9.41561 35.4533 9.13154C33.4112 8.66208 31.7269 10.1618 31.2246 11.7631C30.8355 13.0039 31.043 13.9242 31.8054 14.8806C31.8611 14.9505 31.9214 15.0216 31.9837 15.0935C31.5227 15.9821 30.8893 17.1785 30.3529 18.1063C28.8638 20.6822 27.7393 22.7197 26.8891 22.7197C26.2096 22.7197 26.2189 20.6512 26.2189 18.7143C26.2189 17.0447 26.3422 14.5344 26.4407 11.9354C26.4733 11.0759 26.0433 10.5863 25.3228 10.1428C24.885 9.87332 23.9508 9.34354 23.4099 9.34354C22.6 9.34354 20.2634 9.45375 18.0556 15.8401C17.7773 16.6451 17.2306 18.1118 17.2306 18.1118L17.2776 10.4319C17.2776 10.2519 17.1816 10.0776 16.9621 9.95847C16.59 9.75667 15.5963 9.34354 14.7128 9.34354C14.2919 9.34354 14.0817 9.53935 14.0817 9.92964L14.0045 21.9451C14.0045 22.8581 14.0282 23.9232 14.1187 24.3889C14.2085 24.8555 14.3542 25.2347 14.5347 25.4604C14.7148 25.6857 14.9232 25.8576 15.267 25.9286C15.5867 25.9944 17.338 26.2193 17.4291 25.55C17.5382 24.7479 17.5422 23.8804 18.4618 20.645C19.8935 15.6077 21.76 13.15 22.6377 12.2772C22.791 12.1246 22.9662 12.1155 22.9577 12.3652C22.9205 13.4693 22.7888 16.2291 22.6998 18.5735C22.4621 24.8475 23.6035 26.0104 25.2345 26.0104C26.4824 26.0104 28.2413 24.7703 30.1269 21.632C31.3023 19.6761 32.4436 17.7584 33.2639 16.3761C33.8354 16.9053 34.4765 17.4745 35.1176 18.0828C36.6069 19.4963 37.0959 20.8395 36.7715 22.1137C36.5233 23.0879 35.5888 24.0917 33.9256 23.116C33.4409 22.8315 33.2338 22.6115 32.7466 22.2904C32.4847 22.1181 32.0851 22.0664 31.8453 22.2472C31.2224 22.7166 30.8663 23.314 30.6629 24.0534C30.4651 24.7728 31.1856 25.1531 31.9325 25.4857C32.5756 25.772 33.9578 26.0315 34.8393 26.061C38.2737 26.1758 41.0252 24.4027 42.9403 19.8287C43.2834 23.7788 44.7423 26.0142 47.2777 26.0142C48.9726 26.0142 50.6719 23.8234 51.415 21.6682C51.6283 22.5468 51.9441 23.3105 52.3519 23.9567C54.3054 27.0518 58.095 26.3856 59.9986 23.7576C60.5869 22.9455 60.6767 22.6534 60.6767 22.6534C60.9543 25.1351 62.9528 26.0024 64.0971 26.0024C65.3786 26.0024 66.7019 25.3966 67.6292 23.3087C67.7355 23.5315 67.8547 23.7479 67.9861 23.9569C69.9395 27.052 73.7291 26.3858 75.6327 23.7578C75.7223 23.6343 75.8004 23.5225 75.8682 23.422L75.9241 25.0524L74.1718 26.6597C71.2341 29.3521 69.0024 31.3942 68.8383 33.7724C68.6296 36.8047 71.0873 37.9316 72.9494 38.0793C74.9235 38.2361 76.6171 37.1446 77.6567 35.6169C78.5714 34.2726 79.17 31.3789 79.1263 28.5207C79.1087 27.3762 79.0799 25.921 79.0571 24.3612C80.0883 23.1637 81.2503 21.65 82.3198 19.8786C83.4858 17.9477 84.7352 15.3552 85.3747 13.3374C85.3747 13.3374 86.4602 13.3467 87.6187 13.2709C87.9893 13.2467 88.0955 13.3221 88.0272 13.594C87.9445 13.9219 86.5636 19.2483 87.8238 22.7965C88.6865 25.2254 90.6311 26.0068 91.784 26.0068C93.1336 26.0068 94.4244 24.9876 95.1163 23.4742C95.1997 23.6429 95.2871 23.8061 95.382 23.9569C97.3354 27.052 101.112 26.3821 103.029 23.7578C103.461 23.1657 103.707 22.6537 103.707 22.6537C104.118 25.222 106.116 26.0155 107.26 26.0155C108.451 26.0155 109.582 25.527 110.5 23.3557C110.538 24.312 110.598 25.0934 110.694 25.3398C110.752 25.4906 111.09 25.6798 111.337 25.7711C112.427 26.1752 113.539 25.9842 113.95 25.9011C114.235 25.8434 114.457 25.6148 114.488 25.0245C114.567 23.4744 114.519 20.8701 114.988 18.9343C115.777 15.686 116.513 14.4258 116.862 13.8022C117.057 13.4527 117.278 13.3951 117.286 13.7649C117.302 14.5134 117.339 16.7112 117.645 19.6641C117.87 21.8358 118.169 23.1196 118.4 23.5258C119.057 24.6874 119.869 24.7424 120.53 24.7424C120.951 24.7424 121.831 24.6264 121.752 23.8871C121.714 23.5267 121.781 21.2996 122.559 18.0994C123.066 16.0096 123.913 14.1215 124.218 13.431C124.331 13.1764 124.383 13.3771 124.382 13.4161C124.317 14.8553 124.173 19.5628 124.759 22.1374C125.554 25.6254 127.853 26.0155 128.654 26.0155C130.365 26.0155 131.764 24.7144 132.235 21.2909C132.349 20.4662 132.181 19.83 131.678 19.83ZM60.0303 17.7136C59.9323 19.5253 59.5788 21.0399 59.0115 22.1401C57.9852 24.1312 55.9546 24.7626 55.0594 21.8855C54.4138 19.8109 54.6336 16.982 54.9021 15.4541C55.3006 13.1862 56.2986 11.5784 57.8564 11.7308C59.4566 11.8873 60.2345 13.9437 60.0303 17.7136ZM75.6644 17.7397C75.5731 19.4506 75.1295 21.1692 74.6457 22.1403C73.6469 24.1452 71.5588 24.7719 70.6935 21.8857C70.1019 19.9136 70.2436 17.3614 70.5363 15.7534C70.9161 13.6667 71.8369 11.731 73.4905 11.731C75.0983 11.7308 75.8911 13.4946 75.6644 17.7397ZM76.0724 29.4119C76.0507 32.533 75.5597 35.2694 74.5064 36.0642C73.0124 37.1912 71.0044 36.3459 71.4202 34.0684C71.7881 32.0531 73.528 29.9949 76.0769 27.4802C76.0767 27.4802 76.082 28.0537 76.0724 29.4119ZM103.061 17.7579C102.974 19.6362 102.558 21.1045 102.042 22.1401C101.043 24.145 98.9698 24.7674 98.0899 21.8855C97.6102 20.3146 97.5878 17.6907 97.9326 15.4984C98.2837 13.2653 99.2639 11.5784 100.887 11.7308C102.488 11.8809 103.237 13.9437 103.061 17.7579Z" fill="#131313"/>
</svg>
