<svg width="181" height="27" viewBox="0 0 181 27" fill="none" xmlns="http://www.w3.org/2000/svg">
<g filter="url(#filter0_d_54_11077)">
<path fill-rule="evenodd" clip-rule="evenodd" d="M6.83776 0C5.27051 0 4 1.25097 4 2.79412V16.2059C4 17.749 5.27051 19 6.83776 19H20.459C22.0263 19 23.2968 17.749 23.2968 16.2059V2.79412C23.2968 1.25097 22.0263 0 20.459 0H6.83776ZM6.74884 9.69469C7.02997 9.20112 7.45167 8.68781 8.02397 8.12513L14.9518 1.31384L17.1607 3.48555L10.7148 9.82302C10.263 10.2672 10.1626 10.6226 10.4236 10.8793C10.6947 11.1458 11.0662 11.057 11.518 10.6127L14.7811 7.40452C15.6145 6.58519 16.3374 6.03239 16.9498 5.72637C18.1346 5.13408 19.0583 5.35126 19.9017 6.18046C20.7752 7.03927 20.9559 7.98693 20.2431 9.22086C19.9619 9.71444 19.5402 10.2278 18.9679 10.7904L11.9397 17.7004L9.73083 15.5287L16.2771 9.09253C16.729 8.64832 16.8294 8.29295 16.5683 8.03629C16.2972 7.76976 15.9257 7.8586 15.4739 8.30282L12.2108 11.511C11.3975 12.3106 10.6947 12.8634 10.1124 13.1596C8.88744 13.7913 7.85328 13.6828 6.98981 12.8338C6.1163 11.975 6.03598 10.9286 6.74884 9.69469Z" fill="white"/>
<path d="M39.3855 15.557C38.2482 15.557 37.2914 15.3094 36.5151 14.8141C35.7387 14.3081 35.192 13.6244 34.8748 12.7631L36.8103 11.6487C37.2586 12.8007 38.1389 13.3768 39.4511 13.3768C40.0853 13.3768 40.55 13.2637 40.8453 13.0376C41.1405 12.8115 41.2881 12.5262 41.2881 12.1817C41.2881 11.7833 41.1077 11.4764 40.7469 11.2611C40.386 11.035 39.7408 10.7928 38.8114 10.5344C38.2974 10.3836 37.8601 10.2329 37.4992 10.0822C37.1493 9.93142 36.7939 9.73224 36.4331 9.4846C36.0831 9.2262 35.8152 8.9032 35.6294 8.5156C35.4435 8.128 35.3505 7.6758 35.3505 7.159C35.3505 6.13617 35.7168 5.32329 36.4495 4.72036C37.193 4.10665 38.0842 3.7998 39.123 3.7998C40.0525 3.7998 40.8671 4.0259 41.567 4.4781C42.2777 4.91954 42.8299 5.53862 43.2236 6.33535L41.3209 7.41741C40.8617 6.4484 40.129 5.9639 39.123 5.9639C38.6528 5.9639 38.281 6.07157 38.0077 6.28691C37.7452 6.49147 37.614 6.76064 37.614 7.0944C37.614 7.4497 37.7616 7.7404 38.0569 7.9665C38.3631 8.18184 38.9426 8.4187 39.7955 8.6771C40.1454 8.78477 40.4079 8.8709 40.5828 8.9355C40.7687 8.98934 41.0148 9.08085 41.3209 9.21005C41.638 9.32849 41.8786 9.44154 42.0426 9.5492C42.2176 9.65687 42.4144 9.80222 42.6331 9.98525C42.8518 10.1683 43.0158 10.3567 43.1252 10.5505C43.2455 10.7443 43.3439 10.9812 43.4204 11.2611C43.5079 11.5303 43.5516 11.8264 43.5516 12.1494C43.5516 13.1937 43.1634 14.0228 42.3871 14.6365C41.6216 15.2502 40.6211 15.557 39.3855 15.557Z" fill="white"/>
<path d="M53.1706 4.0259V6.15771H50.0706V15.3309H47.807V6.15771H44.7234V4.0259H53.1706Z" fill="white"/>
<path d="M61.6975 15.3309L59.3848 11.4065H57.6625V15.3309H55.399V4.0259H59.9917C61.0523 4.0259 61.9545 4.39197 62.698 5.1241C63.4416 5.85624 63.8134 6.7391 63.8134 7.7727C63.8134 8.47254 63.6111 9.12392 63.2065 9.72685C62.8019 10.319 62.2661 10.7658 61.5991 11.0673L64.1414 15.3309H61.6975ZM57.6625 6.10925V9.4523H59.9917C60.4181 9.4523 60.7844 9.2908 61.0906 8.9678C61.3968 8.63404 61.5499 8.23567 61.5499 7.7727C61.5499 7.30974 61.3968 6.91675 61.0906 6.59376C60.7844 6.27075 60.4181 6.10925 59.9917 6.10925H57.6625Z" fill="white"/>
<path d="M66.4391 4.0259H68.7026V15.3309H66.4391V4.0259Z" fill="white"/>
<path d="M83.0283 4.0259V15.3309H80.7812V7.9988L77.55 13.2476H77.2876L74.0563 8.01495V15.3309H71.7928V4.0259H74.1219L77.4188 9.37155L80.6992 4.0259H83.0283Z" fill="white"/>
<path d="M95.1045 15.3309H92.4966L88.396 10.0337V15.3309H86.1325V4.0259H88.396V9.01625L92.3326 4.0259H94.9405L90.6923 9.5169L95.1045 15.3309Z" fill="white"/>
<path d="M97.1886 4.0259H99.4521V15.3309H97.1886V4.0259Z" fill="white"/>
<path d="M114.989 15.3309L114.3 13.296H109.724L109.035 15.3309H106.591L110.609 4.0259H113.414L117.449 15.3309H114.989ZM110.445 11.2127H113.595L112.02 6.59376L110.445 11.2127Z" fill="white"/>
<path d="M130.381 9.2585V10.1306C130.381 11.7456 129.856 13.0538 128.806 14.0551C127.756 15.0564 126.4 15.557 124.738 15.557C122.967 15.557 121.496 14.9918 120.326 13.8613C119.167 12.72 118.587 11.3311 118.587 9.69455C118.587 8.04725 119.161 6.65297 120.31 5.5117C121.469 4.37044 122.901 3.7998 124.607 3.7998C125.679 3.7998 126.657 4.04205 127.543 4.52655C128.429 5.00029 129.118 5.63552 129.61 6.43226L127.674 7.53046C127.401 7.06749 126.985 6.69065 126.428 6.39995C125.881 6.10925 125.269 5.9639 124.591 5.9639C123.497 5.9639 122.595 6.3192 121.884 7.02981C121.184 7.72964 120.835 8.61789 120.835 9.69455C120.835 10.7605 121.19 11.6433 121.901 12.3432C122.622 13.0322 123.574 13.3768 124.755 13.3768C125.629 13.3768 126.351 13.1883 126.92 12.8115C127.499 12.4239 127.893 11.8963 128.101 11.2288H124.623V9.2585H130.381Z" fill="white"/>
<path d="M135.219 13.1991H140.058V15.3309H132.955V4.0259H139.976V6.15771H135.219V8.56405H139.566V10.6636H135.219V13.1991Z" fill="white"/>
<path d="M149.261 4.0259H151.524V15.3309H149.802L144.881 8.4187V15.3309H142.618V4.0259H144.34L149.261 10.922V4.0259Z" fill="white"/>
<path d="M160.065 15.557C158.337 15.557 156.91 14.9918 155.784 13.8613C154.657 12.7308 154.094 11.3365 154.094 9.6784C154.094 8.00957 154.657 6.61529 155.784 5.49555C156.91 4.36505 158.337 3.7998 160.065 3.7998C161.103 3.7998 162.06 4.04205 162.935 4.52655C163.821 5.00029 164.51 5.64629 165.002 6.46456L163.05 7.5789C162.766 7.07287 162.361 6.67989 161.836 6.39995C161.311 6.10925 160.721 5.9639 160.065 5.9639C158.949 5.9639 158.047 6.30844 157.358 6.9975C156.68 7.68657 156.341 8.5802 156.341 9.6784C156.341 10.7658 156.68 11.6541 157.358 12.3432C158.047 13.0322 158.949 13.3768 160.065 13.3768C160.721 13.3768 161.311 13.2368 161.836 12.9569C162.372 12.6662 162.776 12.2732 163.05 11.7779L165.002 12.8923C164.51 13.7105 163.826 14.3619 162.951 14.8464C162.077 15.3201 161.114 15.557 160.065 15.557Z" fill="white"/>
<path d="M176.188 4.0259L172.251 10.922V15.3309H170.004V10.922L166.084 4.0259H168.643L171.136 8.7417L173.629 4.0259H176.188Z" fill="white"/>
</g>
<defs>
<filter id="filter0_d_54_11077" x="0" y="0" width="180.188" height="27" filterUnits="userSpaceOnUse" color-interpolation-filters="sRGB">
<feFlood flood-opacity="0" result="BackgroundImageFix"/>
<feColorMatrix in="SourceAlpha" type="matrix" values="0 0 0 0 0 0 0 0 0 0 0 0 0 0 0 0 0 0 127 0" result="hardAlpha"/>
<feOffset dy="4"/>
<feGaussianBlur stdDeviation="2"/>
<feComposite in2="hardAlpha" operator="out"/>
<feColorMatrix type="matrix" values="0 0 0 0 0 0 0 0 0 0 0 0 0 0 0 0 0 0 0.25 0"/>
<feBlend mode="normal" in2="BackgroundImageFix" result="effect1_dropShadow_54_11077"/>
<feBlend mode="normal" in="SourceGraphic" in2="effect1_dropShadow_54_11077" result="shape"/>
</filter>
</defs>
</svg>
