<svg width="179" height="20" viewBox="0 0 179 20" fill="none" xmlns="http://www.w3.org/2000/svg">
<path d="M0 2.94118C0 1.31681 1.31681 0 2.94118 0H17.0588C18.6832 0 20 1.31681 20 2.94118V17.0588C20 18.6832 18.6832 20 17.0588 20H2.94118C1.31681 20 0 18.6832 0 17.0588V2.94118Z" fill="#131313"/>
<path d="M4.17065 8.55228C3.57749 9.14457 3.14043 9.6849 2.84905 10.2045C2.11021 11.5033 2.19346 12.6048 3.0988 13.5088C3.99374 14.4024 5.06558 14.5167 6.33515 13.8517C6.93871 13.54 7.66715 12.9581 8.51006 12.1164L11.8921 8.73932C12.3604 8.27173 12.7454 8.17821 13.0264 8.45876C13.2969 8.72893 13.1929 9.10301 12.7246 9.5706L5.93971 16.3455L8.22909 18.6316L15.5135 11.3579C16.1066 10.7656 16.5437 10.2252 16.8351 9.70568C17.5739 8.40681 17.3866 7.40927 16.4812 6.50526C15.6071 5.63241 14.6497 5.40381 13.4218 6.02727C12.787 6.34939 12.0378 6.93129 11.1741 7.79374L7.79202 11.1708C7.32374 11.6384 6.93871 11.7319 6.65774 11.4514C6.38718 11.1812 6.49124 10.8071 6.95952 10.3395L13.6403 3.66852L11.351 1.3825L4.17065 8.55228Z" fill="white"/>
<path d="M36.675 16.376C35.4963 16.376 34.5047 16.1153 33.7 15.594C32.8953 15.0613 32.3287 14.3417 32 13.435L34.006 12.262C34.4707 13.4747 35.383 14.081 36.743 14.081C37.4003 14.081 37.882 13.962 38.188 13.724C38.494 13.486 38.647 13.1857 38.647 12.823C38.647 12.4037 38.46 12.0807 38.086 11.854C37.712 11.616 37.0433 11.361 36.08 11.089C35.5473 10.9303 35.094 10.7717 34.72 10.613C34.3573 10.4543 33.989 10.2447 33.615 9.984C33.2523 9.712 32.9747 9.372 32.782 8.964C32.5893 8.556 32.493 8.08 32.493 7.536C32.493 6.45933 32.8727 5.60367 33.632 4.969C34.4027 4.323 35.3263 4 36.403 4C37.3663 4 38.2107 4.238 38.936 4.714C39.6727 5.17867 40.245 5.83033 40.653 6.669L38.681 7.808C38.205 6.788 37.4457 6.278 36.403 6.278C35.9157 6.278 35.5303 6.39133 35.247 6.618C34.975 6.83333 34.839 7.11667 34.839 7.468C34.839 7.842 34.992 8.148 35.298 8.386C35.6153 8.61267 36.216 8.862 37.1 9.134C37.4627 9.24733 37.7347 9.338 37.916 9.406C38.1087 9.46267 38.3637 9.559 38.681 9.695C39.0097 9.81967 39.259 9.93867 39.429 10.052C39.6103 10.1653 39.8143 10.3183 40.041 10.511C40.2677 10.7037 40.4377 10.902 40.551 11.106C40.6757 11.31 40.7777 11.5593 40.857 11.854C40.9477 12.1373 40.993 12.449 40.993 12.789C40.993 13.8883 40.5907 14.761 39.786 15.407C38.9927 16.053 37.9557 16.376 36.675 16.376Z" fill="#18181B"/>
<path d="M50.9625 4.238V6.482H47.7495V16.138H45.4035V6.482H42.2075V4.238H50.9625Z" fill="#18181B"/>
<path d="M59.8002 16.138L57.4032 12.007H55.6182V16.138H53.2722V4.238H58.0322C59.1315 4.238 60.0665 4.62333 60.8372 5.394C61.6078 6.16467 61.9932 7.094 61.9932 8.182C61.9932 8.91867 61.7835 9.60433 61.3642 10.239C60.9448 10.8623 60.3895 11.3327 59.6982 11.65L62.3332 16.138H59.8002ZM55.6182 6.431V9.95H58.0322C58.4742 9.95 58.8538 9.78 59.1712 9.44C59.4885 9.08867 59.6472 8.66933 59.6472 8.182C59.6472 7.69467 59.4885 7.281 59.1712 6.941C58.8538 6.601 58.4742 6.431 58.0322 6.431H55.6182Z" fill="#18181B"/>
<path d="M64.7145 4.238H67.0605V16.138H64.7145V4.238Z" fill="#18181B"/>
<path d="M81.9084 4.238V16.138H79.5794V8.42L76.2304 13.945H75.9584L72.6094 8.437V16.138H70.2634V4.238H72.6774L76.0944 9.865L79.4944 4.238H81.9084Z" fill="#18181B"/>
<path d="M94.4247 16.138H91.7217L87.4717 10.562V16.138H85.1257V4.238H87.4717V9.491L91.5517 4.238H94.2547L89.8517 10.018L94.4247 16.138Z" fill="#18181B"/>
<path d="M96.5847 4.238H98.9306V16.138H96.5847V4.238Z" fill="#18181B"/>
<path d="M115.033 16.138L114.319 13.996H109.576L108.862 16.138H106.329L110.494 4.238H113.401L117.583 16.138H115.033ZM110.324 11.803H113.588L111.956 6.941L110.324 11.803Z" fill="#18181B"/>
<path d="M130.986 9.746V10.664C130.986 12.364 130.442 13.741 129.354 14.795C128.266 15.849 126.861 16.376 125.138 16.376C123.302 16.376 121.778 15.781 120.565 14.591C119.364 13.3897 118.763 11.9277 118.763 10.205C118.763 8.471 119.358 7.00333 120.548 5.802C121.75 4.60067 123.234 4 125.002 4C126.113 4 127.127 4.255 128.045 4.765C128.963 5.26367 129.677 5.93233 130.187 6.771L128.181 7.927C127.898 7.43967 127.467 7.043 126.889 6.737C126.323 6.431 125.688 6.278 124.985 6.278C123.852 6.278 122.917 6.652 122.18 7.4C121.455 8.13667 121.092 9.07167 121.092 10.205C121.092 11.327 121.461 12.2563 122.197 12.993C122.945 13.7183 123.931 14.081 125.155 14.081C126.062 14.081 126.81 13.8827 127.399 13.486C128 13.078 128.408 12.5227 128.623 11.82H125.019V9.746H130.986Z" fill="#18181B"/>
<path d="M136.001 13.894H141.016V16.138H133.655V4.238H140.931V6.482H136.001V9.015H140.506V11.225H136.001V13.894Z" fill="#18181B"/>
<path d="M150.555 4.238H152.901V16.138H151.116L146.016 8.862V16.138H143.67V4.238H145.455L150.555 11.497V4.238Z" fill="#18181B"/>
<path d="M161.752 16.376C159.961 16.376 158.482 15.781 157.315 14.591C156.148 13.401 155.564 11.9333 155.564 10.188C155.564 8.43133 156.148 6.96367 157.315 5.785C158.482 4.595 159.961 4 161.752 4C162.829 4 163.82 4.255 164.727 4.765C165.645 5.26367 166.359 5.94367 166.869 6.805L164.846 7.978C164.551 7.44533 164.132 7.03167 163.588 6.737C163.044 6.431 162.432 6.278 161.752 6.278C160.596 6.278 159.661 6.64067 158.947 7.366C158.244 8.09133 157.893 9.032 157.893 10.188C157.893 11.3327 158.244 12.2677 158.947 12.993C159.661 13.7183 160.596 14.081 161.752 14.081C162.432 14.081 163.044 13.9337 163.588 13.639C164.143 13.333 164.563 12.9193 164.846 12.398L166.869 13.571C166.359 14.4323 165.651 15.118 164.744 15.628C163.837 16.1267 162.84 16.376 161.752 16.376Z" fill="#18181B"/>
<path d="M178.463 4.238L174.383 11.497V16.138H172.054V11.497L167.991 4.238H170.643L173.227 9.202L175.811 4.238H178.463Z" fill="#18181B"/>
</svg>
