<svg width="173" height="19" viewBox="0 0 173 19" fill="none" xmlns="http://www.w3.org/2000/svg">
<path fill-rule="evenodd" clip-rule="evenodd" d="M2.83776 0C1.27051 0 0 1.25097 0 2.79412V16.2059C0 17.749 1.27051 19 2.83776 19H16.459C18.0263 19 19.2968 17.749 19.2968 16.2059V2.79412C19.2968 1.25097 18.0263 0 16.459 0H2.83776ZM2.74884 9.69469C3.02997 9.20112 3.45167 8.68781 4.02397 8.12513L10.9518 1.31384L13.1607 3.48555L6.71478 9.82302C6.26297 10.2672 6.16256 10.6226 6.42361 10.8793C6.6947 11.1458 7.06619 11.057 7.51801 10.6127L10.7811 7.40452C11.6145 6.58519 12.3374 6.03239 12.9498 5.72637C14.1346 5.13408 15.0583 5.35126 15.9017 6.18046C16.7752 7.03927 16.9559 7.98693 16.2431 9.22086C15.9619 9.71444 15.5402 10.2278 14.9679 10.7904L7.9397 17.7004L5.73083 15.5287L12.2771 9.09253C12.729 8.64832 12.8294 8.29295 12.5683 8.03629C12.2972 7.76976 11.9257 7.8586 11.4739 8.30282L8.21079 11.511C7.39753 12.3106 6.6947 12.8634 6.11236 13.1596C4.88744 13.7913 3.85328 13.6828 2.98981 12.8338C2.1163 11.975 2.03598 10.9286 2.74884 9.69469Z" fill="white"/>
<path d="M35.3855 15.557C34.2482 15.557 33.2914 15.3094 32.5151 14.8141C31.7387 14.3081 31.192 13.6244 30.8748 12.7631L32.8103 11.6487C33.2586 12.8007 34.1389 13.3768 35.4511 13.3768C36.0853 13.3768 36.55 13.2637 36.8453 13.0376C37.1405 12.8115 37.2881 12.5262 37.2881 12.1817C37.2881 11.7833 37.1077 11.4764 36.7469 11.2611C36.386 11.035 35.7408 10.7928 34.8114 10.5344C34.2974 10.3836 33.8601 10.2329 33.4992 10.0822C33.1493 9.93142 32.7939 9.73224 32.4331 9.4846C32.0831 9.2262 31.8152 8.9032 31.6294 8.5156C31.4435 8.128 31.3505 7.6758 31.3505 7.159C31.3505 6.13617 31.7168 5.32329 32.4495 4.72036C33.193 4.10665 34.0842 3.7998 35.123 3.7998C36.0525 3.7998 36.8671 4.0259 37.567 4.4781C38.2777 4.91954 38.8299 5.53862 39.2236 6.33535L37.3209 7.41741C36.8617 6.44841 36.129 5.9639 35.123 5.9639C34.6528 5.9639 34.281 6.07157 34.0077 6.28691C33.7452 6.49147 33.614 6.76064 33.614 7.0944C33.614 7.4497 33.7616 7.7404 34.0569 7.9665C34.3631 8.18184 34.9426 8.4187 35.7955 8.6771C36.1454 8.78477 36.4079 8.8709 36.5828 8.9355C36.7687 8.98934 37.0148 9.08085 37.3209 9.21005C37.638 9.32849 37.8786 9.44154 38.0426 9.5492C38.2176 9.65687 38.4144 9.80222 38.6331 9.98525C38.8518 10.1683 39.0158 10.3567 39.1252 10.5505C39.2455 10.7443 39.3439 10.9812 39.4204 11.2611C39.5079 11.5303 39.5516 11.8264 39.5516 12.1494C39.5516 13.1937 39.1634 14.0228 38.3871 14.6365C37.6216 15.2502 36.6211 15.557 35.3855 15.557Z" fill="white"/>
<path d="M49.1706 4.0259V6.15771H46.0706V15.3309H43.807V6.15771H40.7234V4.0259H49.1706Z" fill="white"/>
<path d="M57.6975 15.3309L55.3848 11.4065H53.6625V15.3309H51.399V4.0259H55.9917C57.0523 4.0259 57.9545 4.39197 58.698 5.1241C59.4416 5.85624 59.8134 6.7391 59.8134 7.7727C59.8134 8.47254 59.6111 9.12392 59.2065 9.72685C58.8019 10.319 58.2661 10.7658 57.5991 11.0673L60.1414 15.3309H57.6975ZM53.6625 6.10925V9.4523H55.9917C56.4181 9.4523 56.7844 9.2908 57.0906 8.9678C57.3968 8.63404 57.5499 8.23567 57.5499 7.7727C57.5499 7.30974 57.3968 6.91675 57.0906 6.59376C56.7844 6.27075 56.4181 6.10925 55.9917 6.10925H53.6625Z" fill="white"/>
<path d="M62.4391 4.0259H64.7026V15.3309H62.4391V4.0259Z" fill="white"/>
<path d="M79.0283 4.0259V15.3309H76.7812V7.9988L73.55 13.2476H73.2876L70.0563 8.01495V15.3309H67.7928V4.0259H70.1219L73.4188 9.37155L76.6992 4.0259H79.0283Z" fill="white"/>
<path d="M91.1045 15.3309H88.4966L84.396 10.0337V15.3309H82.1325V4.0259H84.396V9.01625L88.3326 4.0259H90.9405L86.6923 9.5169L91.1045 15.3309Z" fill="white"/>
<path d="M93.1886 4.0259H95.4521V15.3309H93.1886V4.0259Z" fill="white"/>
<path d="M110.989 15.3309L110.3 13.296H105.724L105.035 15.3309H102.591L106.609 4.0259H109.414L113.449 15.3309H110.989ZM106.445 11.2127H109.595L108.02 6.59376L106.445 11.2127Z" fill="white"/>
<path d="M126.381 9.2585V10.1306C126.381 11.7456 125.856 13.0538 124.806 14.0551C123.756 15.0564 122.4 15.557 120.738 15.557C118.967 15.557 117.496 14.9918 116.326 13.8613C115.167 12.72 114.587 11.3311 114.587 9.69455C114.587 8.04725 115.161 6.65297 116.31 5.5117C117.469 4.37044 118.901 3.7998 120.607 3.7998C121.679 3.7998 122.657 4.04205 123.543 4.52655C124.429 5.00029 125.118 5.63552 125.61 6.43226L123.674 7.53046C123.401 7.06749 122.985 6.69065 122.428 6.39995C121.881 6.10925 121.269 5.9639 120.591 5.9639C119.497 5.9639 118.595 6.3192 117.884 7.02981C117.184 7.72964 116.835 8.61789 116.835 9.69455C116.835 10.7605 117.19 11.6433 117.901 12.3432C118.622 13.0322 119.574 13.3768 120.755 13.3768C121.629 13.3768 122.351 13.1883 122.92 12.8115C123.499 12.4239 123.893 11.8963 124.101 11.2288H120.623V9.2585H126.381Z" fill="white"/>
<path d="M131.219 13.1991H136.058V15.3309H128.955V4.0259H135.976V6.15771H131.219V8.56405H135.566V10.6636H131.219V13.1991Z" fill="white"/>
<path d="M145.261 4.0259H147.524V15.3309H145.802L140.881 8.4187V15.3309H138.618V4.0259H140.34L145.261 10.922V4.0259Z" fill="white"/>
<path d="M156.065 15.557C154.337 15.557 152.91 14.9918 151.784 13.8613C150.657 12.7308 150.094 11.3365 150.094 9.6784C150.094 8.00957 150.657 6.61529 151.784 5.49555C152.91 4.36505 154.337 3.7998 156.065 3.7998C157.103 3.7998 158.06 4.04205 158.935 4.52655C159.821 5.00029 160.51 5.64629 161.002 6.46456L159.05 7.5789C158.766 7.07287 158.361 6.67989 157.836 6.39995C157.311 6.10925 156.721 5.9639 156.065 5.9639C154.949 5.9639 154.047 6.30844 153.358 6.9975C152.68 7.68657 152.341 8.5802 152.341 9.6784C152.341 10.7658 152.68 11.6541 153.358 12.3432C154.047 13.0322 154.949 13.3768 156.065 13.3768C156.721 13.3768 157.311 13.2368 157.836 12.9569C158.372 12.6662 158.776 12.2732 159.05 11.7779L161.002 12.8923C160.51 13.7105 159.826 14.3619 158.951 14.8464C158.077 15.3201 157.114 15.557 156.065 15.557Z" fill="white"/>
<path d="M172.188 4.0259L168.251 10.922V15.3309H166.004V10.922L162.084 4.0259H164.643L167.136 8.7417L169.629 4.0259H172.188Z" fill="white"/>
</svg>
