<svg width="122" height="29" viewBox="0 0 122 29" fill="none" xmlns="http://www.w3.org/2000/svg">
<path d="M0.0390625 0.290283H20.4044L18.5224 6.01781H13.1849V27.9392H6.63698V6.01781H0.0390625V0.290283ZM54.0111 0.290283V6.01781H60.6091V27.9392H67.1657V6.01781H72.4944L74.3765 0.290283H54.0111ZM24.8356 6.81762C25.4631 6.81718 26.0764 6.62652 26.598 6.26973C27.1195 5.91295 27.5259 5.40607 27.7656 4.8132C28.0054 4.22033 28.0678 3.56808 27.9449 2.93896C27.8221 2.30983 27.5195 1.73209 27.0755 1.27876C26.6314 0.825438 26.0658 0.516901 25.4503 0.392174C24.8347 0.267447 24.1968 0.332131 23.6172 0.578043C23.0376 0.823954 22.5423 1.24004 22.194 1.77371C21.8457 2.30737 21.6601 2.93464 21.6605 3.57617C21.6605 4.00222 21.7427 4.42409 21.9023 4.81765C22.0619 5.21121 22.2958 5.56874 22.5907 5.86979C22.8856 6.17085 23.2357 6.40951 23.6209 6.57215C24.006 6.73479 24.4188 6.8182 24.8356 6.81762ZM21.6605 27.9392H28.0889V9.1104H21.6605V27.9392ZM51.2164 6.65321H43.697L37.2164 13.2783V0.312508H30.8293L30.8098 27.9392H37.2577V20.741L39.2636 18.8725L45.5225 27.9304H52.416L43.3493 14.6846L51.2164 6.65321ZM112.886 14.6891L120.747 6.65321H113.229L106.747 13.2783V0.312508H100.362L100.331 27.9392H106.781V20.741L108.807 18.8725L115.066 27.9304H121.961L112.886 14.6891ZM96.3565 16.7486C96.3565 22.9915 91.3385 28.0548 85.1491 28.0548C78.9598 28.0548 73.9418 22.9915 73.9418 16.7486C73.9418 10.5056 78.9598 5.44239 85.1491 5.44239C91.3385 5.44239 96.3565 10.5079 96.3565 16.753V16.7486ZM90.6474 16.7486C90.6474 15.6369 90.3249 14.5501 89.7208 13.6258C89.1166 12.7014 88.2579 11.981 87.2532 11.5556C86.2486 11.1301 85.143 11.0188 84.0765 11.2357C83.0099 11.4526 82.0302 11.9879 81.2613 12.774C80.4923 13.5601 79.9687 14.5617 79.7565 15.652C79.5444 16.7423 79.6533 17.8725 80.0694 18.8996C80.4855 19.9267 81.1903 20.8046 82.0945 21.4222C82.9986 22.0398 84.0617 22.3695 85.1491 22.3695C86.6066 22.3695 88.0044 21.7779 89.0354 20.7247C90.0665 19.6716 90.6462 18.243 90.6474 16.753V16.7486Z" fill="#131313"/>
</svg>
