<svg width="119" height="38" viewBox="0 0 119 38" fill="none" xmlns="http://www.w3.org/2000/svg">
<path d="M11.2326 35.0678L6.15891 32.1377L3.07946 29.1749L0 26.2122V0H12.9406L16.0082 2.95308L19.0758 5.90616H32.9507C46.6128 5.90616 46.8264 5.90459 46.8818 5.80507C46.9185 5.7389 46.9379 4.71797 46.9379 2.85199V0H70.0533L70.0673 2.94001L70.0813 5.88002L73.1201 5.90616L76.1589 5.93229L76.1732 7.48723C76.1812 8.34247 76.205 9.04217 76.2263 9.04217C76.2476 9.04217 76.999 8.33657 77.8962 7.47416L79.5273 5.90616H86.3582L89.4259 2.95308L92.4936 0H105.38V2.85199C105.38 4.71797 105.399 5.7389 105.436 5.80507C105.491 5.90349 105.59 5.90616 109.194 5.90616H112.896L115.948 8.84632L119 11.7865V31.4446L113.913 34.7222L108.826 38L105.423 37.999L102.02 37.998L102.004 36.4342C101.996 35.5742 101.971 34.8538 101.95 34.8335C101.929 34.8131 100.864 35.5167 99.5833 36.3972L97.2554 37.998H91.1085V36.43C91.1085 35.2063 91.0936 34.862 91.0404 34.862C91.0029 34.862 90.24 35.5676 89.345 36.43L87.7178 37.998H76.8094L75.1562 36.405C74.247 35.5289 73.484 34.8303 73.4608 34.8527C73.4376 34.875 73.2847 35.539 73.1211 36.328C72.9575 37.1172 72.8105 37.8157 72.7945 37.8804L72.7654 37.998H63.2435L61.6163 36.43C60.7213 35.5676 59.9584 34.8619 59.9209 34.8619C59.8677 34.8619 59.8527 35.2063 59.8527 36.43V37.998H55.0775C52.4512 37.998 50.3023 37.991 50.3023 37.9824C50.3023 37.9002 49.6447 34.8383 49.6224 34.8169C49.6061 34.8011 48.8426 35.5105 47.9259 36.3931L46.259 37.998H28.5434L26.9147 37.3708C26.0189 37.0258 25.2618 36.7436 25.2322 36.7436C25.1995 36.7436 25.1783 36.9905 25.1783 37.3708V37.998H16.3062L11.2326 35.0678V35.0678ZM16.3062 25.8721V22.2918L13.2674 22.2657L10.2287 22.2396V15.7585L13.2674 15.7323L16.3062 15.7062V8.54563L13.2674 8.5195L10.2287 8.49337L10.2016 5.56642L10.1744 2.63948H2.74031L2.72664 13.7708L2.71291 24.9021L5.08656 27.1906L7.46021 29.4791L11.8832 29.4658L16.3062 29.4524V25.8721ZM44.5649 27.1903L46.9383 24.902L46.9246 16.7238L46.9109 8.54563L43.1805 8.5322L39.45 8.51877L39.4363 15.3792L39.4225 22.2396H36.7636L36.7364 15.3926L36.7093 8.54563L32.9789 8.5322L29.2484 8.51877L29.2347 15.3792L29.2209 22.2396H26.562L26.5349 15.3926L26.5078 8.54563L22.7771 8.5322L19.0465 8.51877V29.4785H42.1916L44.5649 27.1903ZM57.1124 18.999V8.54563L53.3818 8.5322L49.6512 8.51877V29.4792L53.3818 29.4658L57.1124 29.4524V18.999ZM73.4186 25.8725V22.2666L70.3934 22.253L67.3682 22.2396V15.7585L70.3934 15.745L73.4186 15.7314V8.52039L70.3934 8.50685L67.3682 8.49337L67.3411 5.56642L67.3139 2.63948H59.8798L59.8662 13.772L59.8524 24.9045L62.2264 27.1915L64.6003 29.4785H73.4186V25.8725ZM92.4651 25.872V22.2656H88.0756C84.123 22.2656 83.6828 22.2574 83.6531 22.1829C83.6101 22.0749 83.6101 15.9229 83.6531 15.8149C83.6828 15.7405 84.123 15.7322 88.0756 15.7322H92.4651V8.51939H80.8813L78.5336 10.7806L76.186 13.0418V24.956L78.5336 27.2172L80.8813 29.4784H92.4651V25.872ZM102.68 22.6184L102.694 15.7584H108.771L108.798 22.6053L108.826 29.4523H116.26L116.273 21.2741L116.287 13.0959L113.914 10.8076L111.54 8.51939H107.164C103.57 8.51939 102.778 8.50685 102.728 8.44925C102.686 8.40002 102.663 7.52282 102.654 5.50924L102.64 2.63937H95.2054L95.1915 15.9936C95.1839 23.3384 95.1892 29.3772 95.2034 29.4131C95.2237 29.4645 96.0227 29.4784 98.9477 29.4784H102.666L102.68 22.6184ZM57.1124 4.25964V2.63937H49.6783L49.6639 4.20686C49.656 5.06889 49.6614 5.80408 49.6759 5.84051C49.697 5.8933 50.4553 5.90407 53.4073 5.89335L57.1124 5.87992V4.25964Z" fill="#131313"/>
</svg>
